<svg width="256" height="256" viewBox="0 0 256 256" fill="none" xmlns="http://www.w3.org/2000/svg">
<path fill-rule="evenodd" clip-rule="evenodd" d="M74 64C68.4772 64 64 68.4772 64 74V182C64 187.523 68.4772 192 74 192H182C187.523 192 192 187.523 192 182V74C192 68.4772 187.523 64 182 64L74 64ZM94.5437 140.744C91.7822 140.744 89.5437 142.982 89.5437 145.744V161.344C89.5437 164.105 91.7822 166.344 94.5437 166.344H161.344C164.105 166.344 166.344 164.105 166.344 161.344V145.744C166.344 142.982 164.105 140.744 161.344 140.744H94.5437ZM140.744 94.5437C140.744 91.7822 142.982 89.5437 145.744 89.5437H161.344C164.105 89.5437 166.344 91.7822 166.344 94.5437V110.144C166.344 112.905 164.105 115.144 161.344 115.144H145.744C142.982 115.144 140.744 112.905 140.744 110.144V94.5437ZM94.5437 89.5437C91.7822 89.5437 89.5437 91.7822 89.5437 94.5437V110.144C89.5437 112.905 91.7823 115.144 94.5437 115.144H110.144C112.905 115.144 115.144 112.905 115.144 110.144V94.5437C115.144 91.7822 112.905 89.5437 110.144 89.5437H94.5437Z" fill="url(#paint0_linear_1_27)"/>
<defs>
<linearGradient id="paint0_linear_1_27" x1="128" y1="64" x2="128" y2="192" gradientUnits="userSpaceOnUse">
<stop stop-color="#CC55FF"/>
<stop offset="1" stop-color="#55CCFF"/>
</linearGradient>
</defs>
</svg>
